<svg width="1280" height="544" viewBox="0 0 1280 544" fill="none" xmlns="http://www.w3.org/2000/svg">
  <defs>
    <linearGradient id="bg" x1="0" y1="0" x2="1280" y2="544" gradientUnits="userSpaceOnUse">
      <stop stop-color="#F8F0E6"/>
      <stop offset="1" stop-color="#E6D6BE"/>
    </linearGradient>
    <linearGradient id="panel" x1="0" y1="0" x2="1" y2="1">
      <stop stop-color="#15352B"/>
      <stop offset="1" stop-color="#23483A"/>
    </linearGradient>
    <linearGradient id="amber" x1="0" y1="0" x2="1" y2="1">
      <stop stop-color="#F7B267"/>
      <stop offset="1" stop-color="#E07A2D"/>
    </linearGradient>
    <filter id="shadow" x="-20%" y="-20%" width="140%" height="140%">
      <feDropShadow dx="0" dy="18" stdDeviation="20" flood-color="#7E5A35" flood-opacity="0.18"/>
    </filter>
  </defs>
  <rect width="1280" height="544" fill="url(#bg)"/>
  <circle cx="1030" cy="126" r="118" fill="#F7C98A" opacity="0.35"/>
  <circle cx="1170" cy="82" r="40" fill="#FFF5E8" opacity="0.55"/>
  <rect x="0" y="420" width="1280" height="124" fill="#D8C1A5"/>
  <rect x="770" y="278" width="350" height="110" rx="20" fill="#EAD7BF" stroke="#C7A884"/>
  <rect x="800" y="250" width="74" height="48" rx="14" fill="#FFF6EA" stroke="#C7A884"/>
  <rect x="894" y="242" width="74" height="56" rx="14" fill="#FFF6EA" stroke="#C7A884"/>
  <rect x="988" y="252" width="74" height="46" rx="14" fill="#FFF6EA" stroke="#C7A884"/>
  <rect x="1082" y="244" width="74" height="54" rx="14" fill="#FFF6EA" stroke="#C7A884"/>
  <text x="812" y="280" fill="#315345" font-size="20" font-family="PingFang SC, Hiragino Sans GB, Microsoft YaHei, sans-serif">记忆</text>
  <text x="911" y="278" fill="#315345" font-size="20" font-family="PingFang SC, Hiragino Sans GB, Microsoft YaHei, sans-serif">规则</text>
  <text x="1004" y="280" fill="#315345" font-size="20" font-family="PingFang SC, Hiragino Sans GB, Microsoft YaHei, sans-serif">安全</text>
  <text x="1092" y="279" fill="#315345" font-size="20" font-family="PingFang SC, Hiragino Sans GB, Microsoft YaHei, sans-serif">任务</text>
  <g filter="url(#shadow)">
    <ellipse cx="926" cy="334" rx="132" ry="96" fill="#D44F2F"/>
    <ellipse cx="926" cy="334" rx="92" ry="68" fill="#E35D3B"/>
    <circle cx="840" cy="318" r="38" fill="#D44F2F"/>
    <circle cx="832" cy="312" r="8" fill="#10271F"/>
    <circle cx="849" cy="312" r="8" fill="#10271F"/>
    <path d="M812 332C828 343 852 343 868 332" stroke="#10271F" stroke-width="4" stroke-linecap="round"/>
    <path d="M778 328C744 316 720 294 704 266" stroke="#D44F2F" stroke-width="14" stroke-linecap="round"/>
    <path d="M782 348C744 356 714 378 694 404" stroke="#D44F2F" stroke-width="14" stroke-linecap="round"/>
    <path d="M1078 328C1112 316 1136 294 1152 266" stroke="#D44F2F" stroke-width="14" stroke-linecap="round"/>
    <path d="M1070 348C1108 356 1138 378 1158 404" stroke="#D44F2F" stroke-width="14" stroke-linecap="round"/>
    <path d="M870 408L844 458" stroke="#D44F2F" stroke-width="14" stroke-linecap="round"/>
    <path d="M896 418L880 470" stroke="#D44F2F" stroke-width="14" stroke-linecap="round"/>
    <path d="M956 418L972 470" stroke="#D44F2F" stroke-width="14" stroke-linecap="round"/>
    <path d="M982 408L1008 458" stroke="#D44F2F" stroke-width="14" stroke-linecap="round"/>
  </g>
  <rect x="792" y="138" width="66" height="66" rx="18" fill="#FFF6EA" stroke="#D9B58C"/>
  <path d="M824 153L835 175L857 178L841 194L845 216L824 205L803 216L807 194L791 178L813 175L824 153Z" fill="#F0A64E"/>
  <rect x="886" y="126" width="66" height="78" rx="18" fill="#FFF6EA" stroke="#D9B58C"/>
  <path d="M919 144L934 152V175C934 191 924 202 919 204C914 202 904 191 904 175V152L919 144Z" fill="#2C5B48"/>
  <rect x="980" y="144" width="66" height="60" rx="18" fill="#FFF6EA" stroke="#D9B58C"/>
  <rect x="998" y="162" width="30" height="24" rx="6" fill="#E07A2D"/>
  <rect x="1074" y="126" width="66" height="78" rx="18" fill="#FFF6EA" stroke="#D9B58C"/>
  <path d="M1094 188H1120" stroke="#2C5B48" stroke-width="6" stroke-linecap="round"/>
  <path d="M1094 170H1120" stroke="#2C5B48" stroke-width="6" stroke-linecap="round"/>
  <rect x="72" y="68" width="560" height="318" rx="34" fill="url(#panel)"/>
  <text x="108" y="156" fill="#FFF6EA" font-size="56" font-weight="700" font-family="PingFang SC, Hiragino Sans GB, Microsoft YaHei, sans-serif">一键装好小龙虾</text>
  <text x="108" y="228" fill="#F7D3A0" font-size="34" font-weight="700" font-family="PingFang SC, Hiragino Sans GB, Microsoft YaHei, sans-serif">安全、记忆、规范，一次到位</text>
  <text x="108" y="290" fill="#E9E0D6" font-size="26" font-family="PingFang SC, Hiragino Sans GB, Microsoft YaHei, sans-serif">不是教你怎么装，而是让你装完就能打。</text>
  <rect x="108" y="320" width="262" height="56" rx="28" fill="url(#amber)"/>
  <text x="140" y="356" fill="#FFF8EF" font-size="28" font-weight="700" font-family="PingFang SC, Hiragino Sans GB, Microsoft YaHei, sans-serif">少走弯路，直接开工</text>
</svg>