<svg width="1200" height="900" viewBox="0 0 1200 900" fill="none" xmlns="http://www.w3.org/2000/svg">
  <defs>
    <linearGradient id="bg" x1="0" y1="0" x2="1200" y2="900"><stop stop-color="#F8F0E6"/><stop offset="1" stop-color="#E7D8C3"/></linearGradient>
    <linearGradient id="green" x1="0" y1="0" x2="1" y2="1"><stop stop-color="#14342A"/><stop offset="1" stop-color="#2A5A47"/></linearGradient>
    <linearGradient id="amber" x1="0" y1="0" x2="1" y2="1"><stop stop-color="#F7B267"/><stop offset="1" stop-color="#E07A2D"/></linearGradient>
    <filter id="shadow" x="-20%" y="-20%" width="140%" height="140%"><feDropShadow dx="0" dy="16" stdDeviation="20" flood-color="#6C4A2E" flood-opacity="0.16"/></filter>
  </defs>
  <rect width="1200" height="900" fill="url(#bg)"/>
  <rect x="88" y="82" width="464" height="166" rx="30" fill="url(#green)"/>
  <text x="122" y="150" fill="#FFF6EA" font-size="46" font-weight="700" font-family="PingFang SC, Hiragino Sans GB, Microsoft YaHei, sans-serif">用法其实就一句话</text>
  <text x="122" y="208" fill="#F4D1A3" font-size="28" font-weight="700" font-family="PingFang SC, Hiragino Sans GB, Microsoft YaHei, sans-serif">复杂的是内部，不是你的操作</text>
  <rect x="102" y="320" width="596" height="164" rx="30" fill="#FFF6EA" stroke="#D8B48D"/>
  <text x="134" y="382" fill="#315345" font-size="26" font-family="PingFang SC, Hiragino Sans GB, Microsoft YaHei, sans-serif">帮我安装这个项目：</text>
  <text x="134" y="426" fill="#17362C" font-size="28" font-weight="700" font-family="PingFang SC, Hiragino Sans GB, Microsoft YaHei, sans-serif">DwDestiny/openclaw-xiaolongxia-profile</text>
  <rect x="134" y="446" width="118" height="42" rx="21" fill="url(#amber)"/>
  <text x="164" y="474" fill="#FFF8EF" font-size="22" font-weight="700" font-family="PingFang SC, Hiragino Sans GB, Microsoft YaHei, sans-serif">发送</text>
  <path d="M730 404H892" stroke="#E07A2D" stroke-width="14" stroke-linecap="round"/>
  <path d="M852 370L900 404L852 438" stroke="#E07A2D" stroke-width="14" stroke-linecap="round" stroke-linejoin="round"/>
  <g filter="url(#shadow)">
    <ellipse cx="942" cy="418" rx="120" ry="88" fill="#D44F2F"/>
    <ellipse cx="942" cy="418" rx="82" ry="60" fill="#E36140"/>
    <circle cx="866" cy="404" r="32" fill="#D44F2F"/>
    <circle cx="859" cy="398" r="7" fill="#10271F"/>
    <circle cx="873" cy="398" r="7" fill="#10271F"/>
    <path d="M846 414C858 422 872 422 882 414" stroke="#10271F" stroke-width="3.5" stroke-linecap="round"/>
    <path d="M820 414C786 402 762 384 742 356" stroke="#D44F2F" stroke-width="12" stroke-linecap="round"/>
    <path d="M1060 414C1094 402 1118 384 1138 356" stroke="#D44F2F" stroke-width="12" stroke-linecap="round"/>
    <path d="M892 490L870 534" stroke="#D44F2F" stroke-width="12" stroke-linecap="round"/>
    <path d="M930 500L922 548" stroke="#D44F2F" stroke-width="12" stroke-linecap="round"/>
    <path d="M976 500L984 548" stroke="#D44F2F" stroke-width="12" stroke-linecap="round"/>
    <path d="M1014 490L1036 534" stroke="#D44F2F" stroke-width="12" stroke-linecap="round"/>
  </g>
  <g>
    <rect x="802" y="620" width="86" height="86" rx="22" fill="#FFF6EA" stroke="#D8B48D"/>
    <text x="820" y="670" fill="#315345" font-size="24" font-weight="700" font-family="PingFang SC, Hiragino Sans GB, Microsoft YaHei, sans-serif">记忆</text>
    <rect x="914" y="612" width="86" height="86" rx="22" fill="#FFF6EA" stroke="#D8B48D"/>
    <text x="932" y="662" fill="#315345" font-size="24" font-weight="700" font-family="PingFang SC, Hiragino Sans GB, Microsoft YaHei, sans-serif">规则</text>
    <rect x="1026" y="620" width="86" height="86" rx="22" fill="#FFF6EA" stroke="#D8B48D"/>
    <text x="1044" y="670" fill="#315345" font-size="24" font-weight="700" font-family="PingFang SC, Hiragino Sans GB, Microsoft YaHei, sans-serif">安全</text>
    <rect x="860" y="728" width="194" height="56" rx="28" fill="url(#green)"/>
    <text x="900" y="764" fill="#FFF6EA" font-size="26" font-weight="700" font-family="PingFang SC, Hiragino Sans GB, Microsoft YaHei, sans-serif">装完直接开工</text>
  </g>
</svg>