<svg width="1200" height="900" viewBox="0 0 1200 900" fill="none" xmlns="http://www.w3.org/2000/svg">
  <defs>
    <linearGradient id="bg" x1="0" y1="0" x2="1200" y2="900"><stop stop-color="#F8F1E8"/><stop offset="1" stop-color="#E8D8C3"/></linearGradient>
    <linearGradient id="panel" x1="0" y1="0" x2="1" y2="1"><stop stop-color="#16362C"/><stop offset="1" stop-color="#264B3D"/></linearGradient>
    <filter id="shadow" x="-20%" y="-20%" width="140%" height="140%"><feDropShadow dx="0" dy="16" stdDeviation="18" flood-color="#6C4A2E" flood-opacity="0.2"/></filter>
  </defs>
  <rect width="1200" height="900" fill="url(#bg)"/>
  <rect x="0" y="680" width="1200" height="220" fill="#D8C1A6"/>
  <rect x="94" y="82" width="430" height="170" rx="30" fill="url(#panel)"/>
  <text x="126" y="150" fill="#FFF6EA" font-size="46" font-weight="700" font-family="PingFang SC, Hiragino Sans GB, Microsoft YaHei, sans-serif">安装不是最烦的</text>
  <text x="126" y="208" fill="#F5D2A5" font-size="28" font-weight="700" font-family="PingFang SC, Hiragino Sans GB, Microsoft YaHei, sans-serif">后面的调教才吃时间</text>
  <g filter="url(#shadow)">
    <rect x="168" y="338" width="460" height="242" rx="24" fill="#E8D6BE" stroke="#C9AB85"/>
    <rect x="198" y="366" width="398" height="24" rx="12" fill="#D3B590"/>
    <rect x="210" y="414" width="104" height="74" rx="16" fill="#FFF6EA" stroke="#CCB18C"/>
    <rect x="334" y="428" width="118" height="68" rx="16" fill="#FFF6EA" stroke="#CCB18C" transform="rotate(-7 334 428)"/>
    <rect x="482" y="416" width="98" height="72" rx="16" fill="#FFF6EA" stroke="#CCB18C" transform="rotate(8 482 416)"/>
    <rect x="252" y="512" width="112" height="68" rx="16" fill="#FFF6EA" stroke="#CCB18C" transform="rotate(5 252 512)"/>
    <rect x="394" y="520" width="126" height="70" rx="16" fill="#FFF6EA" stroke="#CCB18C" transform="rotate(-5 394 520)"/>
  </g>
  <text x="225" y="458" fill="#315345" font-size="28" font-weight="700" font-family="PingFang SC, Hiragino Sans GB, Microsoft YaHei, sans-serif">记忆</text>
  <text x="361" y="468" fill="#315345" font-size="26" font-weight="700" font-family="PingFang SC, Hiragino Sans GB, Microsoft YaHei, sans-serif">规则</text>
  <text x="507" y="459" fill="#315345" font-size="26" font-weight="700" font-family="PingFang SC, Hiragino Sans GB, Microsoft YaHei, sans-serif">安全</text>
  <text x="268" y="553" fill="#315345" font-size="24" font-weight="700" font-family="PingFang SC, Hiragino Sans GB, Microsoft YaHei, sans-serif">cron</text>
  <text x="422" y="560" fill="#315345" font-size="24" font-weight="700" font-family="PingFang SC, Hiragino Sans GB, Microsoft YaHei, sans-serif">skills</text>
  <g>
    <circle cx="834" cy="358" r="78" fill="#F3DFC6"/>
    <path d="M790 512C790 460 828 428 876 428C924 428 958 460 958 512V620H790V512Z" fill="#2D5C48"/>
    <circle cx="812" cy="360" r="9" fill="#17362C"/>
    <circle cx="856" cy="360" r="9" fill="#17362C"/>
    <path d="M806 392C820 382 850 382 864 392" stroke="#17362C" stroke-width="5" stroke-linecap="round"/>
    <path d="M954 496L1014 446" stroke="#E07A2D" stroke-width="10" stroke-linecap="round"/>
    <path d="M968 530L1048 504" stroke="#E07A2D" stroke-width="10" stroke-linecap="round"/>
    <path d="M792 496L732 446" stroke="#E07A2D" stroke-width="10" stroke-linecap="round"/>
    <path d="M778 530L698 504" stroke="#E07A2D" stroke-width="10" stroke-linecap="round"/>
  </g>
  <g filter="url(#shadow)">
    <ellipse cx="963" cy="610" rx="120" ry="88" fill="#D44F2F"/>
    <ellipse cx="963" cy="610" rx="82" ry="60" fill="#E36140"/>
    <circle cx="885" cy="598" r="32" fill="#D44F2F"/>
    <circle cx="878" cy="592" r="7" fill="#10271F"/>
    <circle cx="892" cy="592" r="7" fill="#10271F"/>
    <path d="M866 606C878 616 892 616 902 606" stroke="#10271F" stroke-width="3.5" stroke-linecap="round"/>
    <path d="M838 606C804 594 780 576 760 548" stroke="#D44F2F" stroke-width="12" stroke-linecap="round"/>
    <path d="M1082 606C1116 594 1140 576 1160 548" stroke="#D44F2F" stroke-width="12" stroke-linecap="round"/>
    <path d="M914 682L892 726" stroke="#D44F2F" stroke-width="12" stroke-linecap="round"/>
    <path d="M952 692L944 740" stroke="#D44F2F" stroke-width="12" stroke-linecap="round"/>
    <path d="M998 692L1006 740" stroke="#D44F2F" stroke-width="12" stroke-linecap="round"/>
    <path d="M1036 682L1058 726" stroke="#D44F2F" stroke-width="12" stroke-linecap="round"/>
  </g>
  <text x="786" y="782" fill="#6B5140" font-size="30" font-weight="700" font-family="PingFang SC, Hiragino Sans GB, Microsoft YaHei, sans-serif">装完之后，碎事才开始</text>
</svg>